<svg width="82" height="35" viewBox="0 0 82 35" fill="none" xmlns="http://www.w3.org/2000/svg">
<path d="M74.9188 34.8143C75.3686 35.1349 75.993 35.0302 76.3136 34.5804L81.5374 27.2516C81.858 26.8019 81.7533 26.1775 81.3036 25.8569C80.8538 25.5363 80.2294 25.641 79.9088 26.0908L75.2654 32.6053L68.7509 27.9618C68.3012 27.6413 67.6767 27.746 67.3562 28.1957C67.0356 28.6454 67.1403 29.2699 67.59 29.5905L74.9188 34.8143ZM0.701165 4.16842C11.8584 1.86845 28.9475 0.645524 43.9434 4.40744C58.9107 8.16214 71.603 16.8114 74.513 34.1654L76.4855 33.8346C73.3956 15.4081 59.8379 6.33277 44.4301 2.46755C29.0511 -1.39046 11.6402 -0.128626 0.29737 2.20961L0.701165 4.16842Z" fill="white" fill-opacity="0.2"/>
</svg>
