<svg width="20" height="21" viewBox="0 0 20 21" fill="none" xmlns="http://www.w3.org/2000/svg">
<g clip-path="url(#clip0_71_583)">
<path d="M14.5862 0.988281H5.41381C2.42858 0.988281 0 3.41687 0 6.40209V15.5746C0 18.5597 2.42858 20.9882 5.41381 20.9882H14.5863C17.5714 20.9882 20 18.5597 20 15.5746V6.40209C20 3.41687 17.5714 0.988281 14.5862 0.988281V0.988281ZM9.99998 16.4568C6.98454 16.4568 4.53139 14.0037 4.53139 10.9883C4.53139 7.97283 6.98454 5.51967 9.99998 5.51967C13.0154 5.51967 15.4686 7.97283 15.4686 10.9883C15.4686 14.0037 13.0154 16.4568 9.99998 16.4568ZM15.5993 6.80935C14.7082 6.80935 13.9834 6.08455 13.9834 5.19344C13.9834 4.30233 14.7082 3.57739 15.5993 3.57739C16.4904 3.57739 17.2154 4.30233 17.2154 5.19344C17.2154 6.08455 16.4904 6.80935 15.5993 6.80935Z" fill="#2A5137"/>
<path d="M9.99996 6.69141C7.63119 6.69141 5.70386 8.61859 5.70386 10.9875C5.70386 13.3563 7.63119 15.2836 9.99996 15.2836C12.3689 15.2836 14.2961 13.3563 14.2961 10.9875C14.2961 8.61859 12.3689 6.69141 9.99996 6.69141Z" fill="#2A5137"/>
<path d="M15.5993 4.75C15.3549 4.75 15.1559 4.94897 15.1559 5.19342C15.1559 5.43786 15.3549 5.63684 15.5993 5.63684C15.8439 5.63684 16.0429 5.43802 16.0429 5.19342C16.0429 4.94882 15.8439 4.75 15.5993 4.75Z" fill="#2A5137"/>
</g>
<defs>
<clipPath id="clip0_71_583">
<rect width="20" height="20" fill="white" transform="translate(0 0.988281)"/>
</clipPath>
</defs>
</svg>
