<svg width="18" height="18" viewBox="0 0 18 18" fill="none" xmlns="http://www.w3.org/2000/svg">
<path d="M9 8.4375C10.4562 8.4375 11.6367 7.257 11.6367 5.80078C11.6367 4.34456 10.4562 3.16406 9 3.16406C7.54378 3.16406 6.36328 4.34456 6.36328 5.80078C6.36328 7.257 7.54378 8.4375 9 8.4375Z" fill="white"/>
<path d="M9 0C6.14855 0 3.19922 2.16963 3.19922 5.80078C3.19922 9.11781 8.37482 15.4364 8.59472 15.7011C8.69513 15.8211 8.84345 15.8906 9 15.8906C9.15655 15.8906 9.30488 15.8211 9.40528 15.7011C9.62518 15.4364 14.8008 9.11781 14.8008 5.80078C14.8008 2.60223 12.1986 0 9 0ZM9 9.49219C6.96477 9.49219 5.30859 7.83601 5.30859 5.80078C5.30859 3.76555 6.96477 2.10938 9 2.10938C11.0352 2.10938 12.6914 3.76555 12.6914 5.80078C12.6914 7.83601 11.0352 9.49219 9 9.49219Z" fill="white"/>
<path d="M12.5538 13.2812C11.5371 14.7533 10.5865 15.9287 10.2164 16.3741C9.91255 16.7371 9.46965 16.9441 9 16.9441C8.53035 16.9441 8.08745 16.7371 7.78567 16.3766C7.41473 15.9302 6.46351 14.754 5.44623 13.2812C4.08111 13.7637 3.19922 14.5152 3.19922 15.3621C3.19922 16.8183 5.79635 17.9988 9 17.9988C12.2036 17.9988 14.8008 16.8183 14.8008 15.3621C14.8008 14.5153 13.9189 13.7637 12.5538 13.2812Z" fill="white"/>
</svg>
