<svg width="10" height="10" viewBox="0 0 10 10" fill="none" xmlns="http://www.w3.org/2000/svg">
<g clip-path="url(#clip0_138_79)">
<path d="M4.85771 0.00254518C2.87093 0.0722569 1.22041 1.62232 1.02973 3.6009C0.990773 3.99661 1.01333 4.38003 1.08304 4.74704C1.08304 4.74704 1.08919 4.7901 1.10969 4.87211C1.1712 5.14686 1.26347 5.4134 1.37829 5.66354C1.7781 6.6108 2.7028 8.19572 4.77775 9.92006C4.90487 10.0267 5.09145 10.0267 5.22062 9.92006C7.29556 8.19777 8.22026 6.61285 8.62213 5.66149C8.739 5.41135 8.82921 5.14686 8.89072 4.87006C8.90917 4.7901 8.91738 4.74499 8.91738 4.74499C8.96453 4.49895 8.98914 4.24676 8.98914 3.98841C8.98914 1.73714 7.12538 -0.0774182 4.85771 0.00254518ZM4.99918 5.97315C3.92891 5.97315 3.06161 5.10585 3.06161 4.03557C3.06161 2.96529 3.92891 2.098 4.99918 2.098C6.06946 2.098 6.93675 2.96529 6.93675 4.03557C6.93675 5.10585 6.06946 5.97315 4.99918 5.97315Z" fill="black"/>
</g>
<defs>
<clipPath id="clip0_138_79">
<rect width="10" height="10" fill="white"/>
</clipPath>
</defs>
</svg>
