<svg width="20" height="21" viewBox="0 0 20 21" fill="none" xmlns="http://www.w3.org/2000/svg">
<g clip-path="url(#clip0_71_589)">
<path fill-rule="evenodd" clip-rule="evenodd" d="M6.02942 16.5396C6.42546 16.7485 6.86654 16.8576 7.31429 16.8574C8.80575 16.8574 10.0233 15.6711 10.0782 14.1924L10.0837 0.988281H13.3782C13.3785 1.26873 13.4045 1.54856 13.456 1.82425H11.0439V1.82471H14.3387C14.3382 2.92979 14.7388 3.99751 15.466 4.82961L15.467 4.83067C16.2088 5.31528 17.0759 5.57295 17.962 5.57211V6.30586C18.2721 6.37228 18.5928 6.40766 18.9226 6.40766V9.70295C17.2778 9.70486 15.6741 9.18916 14.3387 8.22891V14.9244C14.3387 18.2678 11.6183 20.9883 8.27442 20.9883C7.44171 20.9885 6.61792 20.8167 5.85467 20.4837C5.09196 20.1509 4.40621 19.6643 3.84022 19.0543L3.83898 19.0534C2.27515 17.9554 1.25 16.1397 1.25 14.0884C1.25 10.7446 3.97044 8.0237 7.31429 8.0237C7.58775 8.02499 7.86075 8.04491 8.1315 8.08324V8.86332C8.15054 8.86295 8.16946 8.86228 8.18846 8.86166C8.21696 8.86066 8.24554 8.85966 8.27442 8.85966C8.54783 8.86095 8.82087 8.88086 9.09158 8.9192V12.2828C8.83325 12.2017 8.55979 12.1545 8.27442 12.1545C7.54008 12.1554 6.83608 12.4475 6.31687 12.9668C5.79767 13.4861 5.50567 14.1901 5.50496 14.9244C5.505 15.5044 5.68829 16.0696 6.02871 16.5392L6.02942 16.5396ZM2.61012 17.0882C2.89156 17.8214 3.31158 18.4867 3.83764 19.052C3.30087 18.4776 2.8864 17.8095 2.61012 17.0882Z" fill="#2A5137"/>
</g>
<defs>
<clipPath id="clip0_71_589">
<rect width="20" height="20" fill="white" transform="translate(0 0.988281)"/>
</clipPath>
</defs>
</svg>
