<svg width="20" height="20" viewBox="0 0 20 20" fill="none" xmlns="http://www.w3.org/2000/svg">
<path d="M19.375 8.125H18.75V7.5C18.75 7.1548 18.4702 6.875 18.125 6.875H17.5V6.25C17.5 5.55965 16.9404 5 16.25 5H1.25C0.559648 5 0 5.55965 0 6.25V13.75C0 14.4404 0.559648 15 1.25 15H16.25C16.9404 15 17.5 14.4404 17.5 13.75V13.125H18.125C18.4702 13.125 18.75 12.8452 18.75 12.5V11.875H19.375C19.7202 11.875 20 11.5952 20 11.25V8.75C20 8.4048 19.7202 8.125 19.375 8.125ZM16.25 7.5V13.75H7.5V6.25H16.25V7.5Z" fill="#305942"/>
</svg>
