<svg width="20" height="20" viewBox="0 0 20 20" fill="none" xmlns="http://www.w3.org/2000/svg">
<path d="M13.5256 1.15385H11.9792V0H7.94096V1.15385H6.4742C5.51974 1.15385 4.74353 1.93028 4.74353 2.88465V18.2693C4.74353 19.2234 5.51996 20 6.4742 20H13.5256C14.4803 20 15.2564 19.2234 15.2564 18.2693V2.8846C15.2564 1.93028 14.4803 1.15385 13.5256 1.15385ZM14.1027 18.2694C14.1027 18.5874 13.8438 18.8462 13.5256 18.8462H6.4742C6.15595 18.8462 5.89708 18.5878 5.89708 18.2694V2.8846C5.89708 2.56665 6.15595 2.30766 6.4742 2.30766H13.5256C13.8438 2.30766 14.1027 2.56661 14.1027 2.8846V18.2694ZM13.4736 18.1634H6.5263V15.632H13.4734V18.1634H13.4736ZM13.4736 15.0084H6.5263V12.4772H13.4734V15.0084H13.4736ZM13.4736 11.8534H6.5263V9.32202H13.4734V11.8534H13.4736ZM13.4736 8.70561H6.5263V6.17423H13.4734V8.70561H13.4736Z" fill="#305942"/>
</svg>
