<svg width="20" height="20" viewBox="0 0 20 20" fill="none" xmlns="http://www.w3.org/2000/svg">
<path d="M4.33497 3.6728L4.01668 3.12096C3.83262 2.79969 3.78264 2.41883 3.87764 2.06098C3.97315 1.70296 4.20769 1.39774 4.52913 1.21352L5.04505 0.915585C5.71358 0.53009 6.56799 0.7595 6.95331 1.42803L7.27161 1.97954L5.80312 2.827L4.33497 3.6728Z" fill="#305942"/>
<path d="M5.68311 10.721L12.6973 6.67773L13.5471 8.36007C14.6936 10.6325 15.584 13.0254 16.2017 15.4946L16.3983 16.2825L12.143 18.7366L11.5594 18.1692C9.73137 16.3983 8.10614 14.4297 6.71363 12.2994L5.68311 10.721ZM14.518 14.5122L15.1786 14.3611C15.0902 13.9736 14.9922 13.5839 14.8871 13.2028L14.2335 13.3834C14.335 13.7543 14.4301 14.1354 14.518 14.5122ZM12.7773 9.71021C13.25 10.6974 13.6601 11.7133 14.0054 12.752L14.6494 12.5379C14.2947 11.4733 13.874 10.4317 13.3895 9.41939L12.7576 8.10136L12.1475 8.39433L12.7773 9.71021Z" fill="#305942"/>
<path d="M4.35662 9.13734L11.9915 4.73438L12.6688 5.9089L4.9457 10.3625L4.2684 9.18782L4.35596 9.13767L4.35662 9.13734Z" fill="#305942"/>
<path d="M3.91865 5.30876L4.45791 4.38566L7.82605 2.44197L8.89497 2.4375H8.90375C9.75153 2.43833 10.5349 2.89036 10.96 3.62394L11.3589 4.31647L4.3116 8.38096L3.91253 7.68909C3.48913 6.95137 3.49162 6.04399 3.91865 5.30876Z" fill="#305942"/>
<path d="M13.6193 3.04952H12.9413C12.9413 2.30071 12.3343 1.69359 11.5854 1.69359V1.01562C12.7082 1.01678 13.6183 1.92664 13.6193 3.04952Z" fill="#305942"/>
<path d="M12.9413 0.677966V0C14.0642 0.00115864 14.9742 0.911017 14.9752 2.0339H14.2973C14.2973 1.28509 13.6903 0.677966 12.9413 0.677966Z" fill="#305942"/>
<path d="M6.83964 16.9492H7.5176C7.5176 17.698 8.12473 18.3052 8.87354 18.3052V18.9831C7.75082 18.9818 6.84096 18.0719 6.83964 16.9492Z" fill="#305942"/>
<path d="M7.51758 19.3208V19.9987C6.39486 19.9974 5.485 19.0876 5.48368 17.9648H6.16165C6.16165 18.7137 6.76877 19.3208 7.51758 19.3208Z" fill="#305942"/>
</svg>
