<svg width="20" height="20" viewBox="0 0 20 20" fill="none" xmlns="http://www.w3.org/2000/svg">
<g clip-path="url(#clip0_73_246)">
<path d="M13.0541 13.5753L6.42496 6.94611C6.19624 6.71722 6.19624 6.34628 6.42496 6.1174L7.25367 5.28885C7.48255 5.05997 7.85349 5.05997 8.08222 5.28885L14.7114 11.918C14.9403 12.1468 14.9403 12.5177 14.7114 12.7466L13.8829 13.5753C13.654 13.804 13.2829 13.804 13.0541 13.5753Z" fill="#305942"/>
<path d="M0.427845 14.2174C-0.17381 14.911 -0.136731 15.963 0.512684 16.6122L3.38821 19.4877C4.03747 20.137 5.08941 20.1744 5.78308 19.5726L12.0003 14.1787L5.82168 8L0.427845 14.2174Z" fill="#305942"/>
<path d="M16.5068 7.08456L16.9213 6.67028C17.4543 6.13714 17.4543 5.26983 16.9213 4.73669L15.264 3.07943C14.7309 2.54644 13.8636 2.54644 13.3306 3.07943L12.9161 3.49386L16.5068 7.08456Z" fill="#305942"/>
<path d="M15.4696 10.704C16.194 9.68976 16.0802 8.31403 15.1989 7.43283L12.5669 4.80084C11.6857 3.91949 10.3099 3.80566 9.29569 4.53015L9.11243 4.66092L15.3386 10.8873L15.4696 10.704Z" fill="#305942"/>
<path d="M2.30725 6.25C1.98361 6.25 1.72131 5.9877 1.72131 5.66406C1.72131 2.54089 4.26221 0 7.38538 0C7.70901 0 7.97131 0.262299 7.97131 0.585938C7.97131 0.909576 7.70901 1.17188 7.38538 1.17188C4.90842 1.17188 2.89319 3.1871 2.89319 5.66406C2.89319 5.9877 2.63089 6.25 2.30725 6.25Z" fill="#305942"/>
<path d="M4.651 6.25C4.32736 6.25 4.06506 5.9877 4.06506 5.66406C4.06506 3.83331 5.55463 2.34375 7.38538 2.34375C7.70901 2.34375 7.97131 2.60605 7.97131 2.92969C7.97131 3.25333 7.70901 3.51562 7.38538 3.51562C6.20068 3.51562 5.23694 4.47937 5.23694 5.66406C5.23694 5.9877 4.97464 6.25 4.651 6.25Z" fill="#305942"/>
<path d="M14.3359 18.2773C14.0123 18.2773 13.75 18.015 13.75 17.6914C13.75 17.3678 14.0123 17.1055 14.3359 17.1055C16.8129 17.1055 18.8281 15.0902 18.8281 12.6133C18.8281 12.2896 19.0904 12.0273 19.4141 12.0273C19.7377 12.0273 20 12.2896 20 12.6133C20 15.7365 17.4591 18.2773 14.3359 18.2773Z" fill="#305942"/>
<path d="M14.3359 15.9336C14.0123 15.9336 13.75 15.6713 13.75 15.3477C13.75 15.024 14.0123 14.7617 14.3359 14.7617C15.5206 14.7617 16.4844 13.798 16.4844 12.6133C16.4844 12.2896 16.7467 12.0273 17.0703 12.0273C17.394 12.0273 17.6562 12.2896 17.6562 12.6133C17.6562 14.4442 16.1667 15.9336 14.3359 15.9336Z" fill="#305942"/>
</g>
<defs>
<clipPath id="clip0_73_246">
<rect width="20" height="20" fill="white"/>
</clipPath>
</defs>
</svg>
