<svg width="26" height="26" viewBox="0 0 26 26" fill="none" xmlns="http://www.w3.org/2000/svg">
<g clip-path="url(#clip0_71_155)">
<path d="M16.1467 3.61268V0.448297C16.1467 0.201297 15.9459 0 15.6984 0C15.451 0 15.2501 0.201297 15.2501 0.448297V3.61268C15.3976 3.59607 15.5469 3.58622 15.6984 3.58622C15.85 3.58622 15.9992 3.59607 16.1467 3.61268Z" fill="#F6C2CE"/>
<path d="M23.2976 12.1039C23.2052 10.8071 22.7143 9.58146 21.8837 8.57422L18.354 12.1039H23.2976Z" fill="#F6C2CE"/>
<path d="M19.6432 1.61539C19.7163 1.5181 19.7459 1.40292 19.7284 1.28232C19.7114 1.1644 19.6491 1.05908 19.5535 0.987788C19.3622 0.844331 19.0689 0.886479 18.9259 1.07701L17.0432 3.58738V3.8227C17.288 3.90969 17.522 4.01902 17.7425 4.14948L19.6432 1.61539Z" fill="#F6C2CE"/>
<path d="M8.10059 17.0335H17.9174C17.6897 14.5241 15.5764 12.5508 13.0087 12.5508C10.441 12.5508 8.32783 14.5241 8.10059 17.0335ZM13.0087 13.4474C14.6615 13.4474 16.1297 14.4372 16.7496 15.9689L15.9185 16.3051C15.4362 15.1141 14.294 14.3439 13.0087 14.3439V13.4474Z" fill="#F6C2CE"/>
<path d="M22.6293 17.0347H23.7997C25.7923 14.0151 25.4951 10.0537 23.0906 7.36719L22.5186 7.93919C23.6119 9.2338 24.2157 10.8525 24.2157 12.552C24.2157 14.1882 23.6419 15.7697 22.6293 17.0347Z" fill="#F6C2CE"/>
<path d="M18.8135 17.0345H21.4261C22.5208 15.9631 23.1851 14.5219 23.2954 13H17.4575L17.1096 13.3479C18.0752 14.3054 18.7037 15.5982 18.8135 17.0345Z" fill="#F6C2CE"/>
<path d="M1.80188 13.8977C1.80188 14.6392 2.40526 15.2425 3.14672 15.2425C3.50625 15.2425 3.8438 15.1027 4.09704 14.8485L4.41442 14.5311L6.9185 17.0357H7.20404C7.28428 15.9908 7.63665 15.0216 8.19697 14.2026L7.36629 13.3724L7.68367 13.055C7.93738 12.8017 8.07769 12.4641 8.07769 12.1047C8.07769 11.3632 7.4743 10.7598 6.73284 10.7598C6.63783 10.7598 6.53876 10.7728 6.42216 10.8006L6.12763 10.8705L5.95279 10.624C5.61479 10.1475 5.06834 9.86328 4.49141 9.86328C3.50249 9.86328 2.69832 10.6675 2.69832 11.6564C2.69832 11.8115 2.72564 11.9742 2.78348 12.1678L2.89195 12.5301L2.55304 12.6981C2.09017 12.9285 1.80188 13.388 1.80188 13.8977Z" fill="#F6C2CE"/>
<path d="M4.66464 17.9297C4.13433 17.9297 3.69593 18.3188 3.61255 18.8262H25.9914C25.908 18.3188 25.4701 17.9297 24.9393 17.9297H4.66464Z" fill="#F6C2CE"/>
<path d="M18.8364 7.73019V7.62035C18.8364 5.89003 17.4284 4.48242 15.6985 4.48242C13.9686 4.48242 12.5605 5.89003 12.5605 7.62035V7.73019C12.5605 7.92788 12.5794 8.12511 12.6162 8.31651L13.2541 11.6669C14.4344 11.7162 15.5228 12.1161 16.4207 12.7679L18.2887 10.8999L18.7809 8.31691C18.8176 8.12511 18.8364 7.92788 18.8364 7.73019ZM17.0433 10.7583H14.3536V9.86173H17.0433V10.7583ZM17.0433 8.96519H14.3536V8.06864H17.0433V8.96519ZM17.9399 7.17205H13.4571V6.27551H17.9399V7.17205Z" fill="#F6C2CE"/>
<path d="M13.2213 26.0005H13.9054H16.3826C20.487 26.0005 24.218 23.4915 25.7941 19.7246H3.80933C5.38593 23.491 9.11648 26.0005 13.2213 26.0005ZM13.9054 24.2074H14.8019V25.1039H13.9054V24.2074ZM13.0196 24.2047L12.9976 25.1012C9.93411 25.0268 7.1001 23.4439 5.4164 20.8664L6.1668 20.376C7.68962 22.7061 10.2511 24.1379 13.0196 24.2047Z" fill="#F6C2CE"/>
<path d="M2.82354 19.6919C2.74062 19.4696 2.69847 19.2374 2.69847 19.0011C2.69847 18.942 2.71101 18.8859 2.71594 18.8281H0.905332C0.410875 18.8281 0.00878906 19.2302 0.00878906 19.7247V25.104C0.00878906 25.5984 0.410875 26.0005 0.905332 26.0005H8.88688C6.14479 24.8287 3.90701 22.5806 2.82354 19.6919Z" fill="#F6C2CE"/>
<path d="M0.905282 17.932H3.0189C3.3699 17.3936 3.97506 17.0354 4.66452 17.0354H5.65074L4.38304 15.7677C4.0195 16.0094 3.59319 16.1389 3.14672 16.1389C1.9108 16.1389 0.905333 15.1334 0.905333 13.8975C0.905333 13.7447 0.924173 13.5949 0.953727 13.4492H0.905333C0.410875 13.4492 0.00878907 13.8513 0.00878907 14.3458V17.0354C0.00873829 17.5299 0.410824 17.932 0.905282 17.932Z" fill="#F6C2CE"/>
<path d="M13.6543 4.14957C13.8748 4.01912 14.1088 3.90973 14.3536 3.8228V3.58793L12.4704 1.07711C12.3274 0.886577 12.0328 0.844428 11.8432 0.987428C11.7473 1.05913 11.685 1.1645 11.6679 1.28328C11.6509 1.40297 11.68 1.51774 11.7526 1.61498L13.6543 4.14957Z" fill="#F6C2CE"/>
<path d="M0.905332 12.5512H1.36125C1.49617 12.3742 1.65532 12.2137 1.84179 12.0815C1.81488 11.934 1.80188 11.7928 1.80188 11.6547C1.80188 10.1714 3.00818 8.96501 4.49156 8.96501C5.2617 8.96501 5.99463 9.30078 6.50255 9.87501C6.581 9.86602 6.65763 9.86155 6.73294 9.86155C7.96885 9.86155 8.97432 10.867 8.97432 12.1029C8.97432 12.5494 8.84478 12.9757 8.60316 13.3393L8.765 13.5011C9.09402 13.1506 9.46477 12.8403 9.87092 12.5794V9.5948C9.87092 9.3281 9.753 9.07703 9.54815 8.9058L7.46724 7.17188H2.41247L0.331555 8.90631C0.126703 9.07709 0.00878906 9.32815 0.00878906 9.59485V11.6547C0.00878906 12.1491 0.410875 12.5512 0.905332 12.5512Z" fill="#F6C2CE"/>
<path d="M7.1813 4.03423C7.1813 3.78723 6.98046 3.58594 6.73301 3.58594H3.14678C2.89933 3.58594 2.69849 3.78723 2.69849 4.03423V4.48253H7.18125V4.03423H7.1813Z" fill="#F6C2CE"/>
<path d="M2.69849 5.37891H7.18125V6.27545H2.69849V5.37891Z" fill="#F6C2CE"/>
</g>
<defs>
<clipPath id="clip0_71_155">
<rect width="26" height="26" fill="white"/>
</clipPath>
</defs>
</svg>
