<svg width="26" height="26" viewBox="0 0 26 26" fill="none" xmlns="http://www.w3.org/2000/svg">
<g clip-path="url(#clip0_71_203)">
<path d="M15.4788 1.68848C15.8107 2.49747 15.7464 3.44584 15.2692 4.18429C14.8007 4.90938 13.9689 5.34506 13.1051 5.30726C12.2494 5.2698 11.458 4.78374 11.0004 4.0658C10.5238 3.31804 10.4222 2.35908 10.7633 1.53683C11.0943 0.739302 11.8222 0.152023 12.6801 0.0255672C13.5217 -0.0985025 14.3804 0.236963 14.9524 0.858457C15.1755 1.10101 15.3537 1.38365 15.4788 1.68848Z" fill="#F6C2CE"/>
<path d="M20.278 9.79405C19.9276 9.76093 19.5771 9.72786 19.2267 9.69475C18.6282 9.63825 18.0298 9.5817 17.4314 9.5252C17.2515 9.50821 17.0716 9.49122 16.8917 9.47424C16.8815 9.47328 16.8289 9.47581 16.8219 9.46736C16.8069 9.44914 16.7917 9.43091 16.7767 9.41263C16.5195 9.10184 16.2622 8.79104 16.005 8.48029C15.6101 8.00315 15.2152 7.52606 14.8203 7.04891C14.524 6.69102 14.2278 6.33313 13.9316 5.97519C13.8465 5.87235 13.764 5.76718 13.6639 5.67794C13.4724 5.50711 13.2369 5.38877 12.9853 5.33776C12.8634 5.31304 12.7383 5.30397 12.6141 5.31079C12.5532 5.31413 12.4931 5.3252 12.4324 5.32754C12.3623 5.33026 12.2925 5.32859 12.2225 5.33131C12.0881 5.33656 11.9544 5.36056 11.8266 5.40261C11.6912 5.44708 11.574 5.51665 11.4508 5.58594C11.3435 5.64626 11.2525 5.72476 11.1518 5.79362C11.0592 5.85689 10.9666 5.92021 10.874 5.98349C10.4565 6.26895 10.039 6.55435 9.62136 6.83981C9.10986 7.18945 8.59841 7.53913 8.08691 7.88877C7.74061 8.1255 7.39431 8.36224 7.04801 8.59897C6.9541 8.66315 6.85418 8.72381 6.76823 8.79796C6.60227 8.94112 6.50874 9.12627 6.4384 9.32807C6.30207 9.71913 6.16569 10.1102 6.02935 10.5012C5.8253 11.0865 5.62126 11.6717 5.41721 12.2569C5.26021 12.7072 5.10322 13.1575 4.94622 13.6078C4.92122 13.6795 4.89569 13.7511 4.87121 13.8229C4.72748 14.2376 4.87899 14.7133 5.2376 14.9669C5.59706 15.2212 6.09434 15.2057 6.43802 14.9311C6.60103 14.8008 6.69747 14.6287 6.77449 14.4402C6.93897 14.0376 7.10346 13.635 7.2679 13.2324C7.50125 12.6613 7.7346 12.0901 7.96794 11.5189C8.11091 11.1689 8.25392 10.8189 8.39689 10.4689C8.40381 10.452 8.40448 10.4426 8.42027 10.4344C8.47672 10.4051 8.53318 10.3758 8.58963 10.3465C8.8298 10.2219 9.07002 10.0972 9.31019 9.97257C9.5725 9.83642 9.83486 9.70028 10.0972 9.56414C10.1813 9.52048 10.2654 9.47681 10.3495 9.43315C10.3913 9.41144 10.4264 9.39297 10.4628 9.36291C10.7444 9.13023 11.0146 8.88319 11.2884 8.64135C11.2852 8.68692 11.2581 8.73316 11.2372 8.77248C11.1995 8.84334 11.1563 8.91125 11.1119 8.97805C10.9967 9.15118 10.8709 9.31757 10.739 9.4782C10.6753 9.55584 10.6099 9.63209 10.5415 9.70572C10.5131 9.73631 10.4842 9.76647 10.4544 9.79577C10.4327 9.8171 10.4411 9.84802 10.4414 9.8776C10.4418 9.91798 10.4421 9.95835 10.4424 9.99872C10.444 10.2961 10.4407 10.5934 10.4318 10.8906C10.4158 11.4237 10.3777 11.9552 10.3137 12.4847C10.2571 12.9525 10.1848 13.4181 10.1257 13.8856C10.0903 14.1646 10.0594 14.4442 10.0334 14.7242C10.0301 14.7596 10.0186 14.7902 10.0432 14.8171C10.0432 14.8173 10.0431 14.8179 10.043 14.8181C10.0426 14.821 10.0422 14.8238 10.0418 14.8267C10.04 14.8403 10.0381 14.8539 10.0362 14.8675C10.0164 15.0128 9.99653 15.1581 9.97663 15.3034C9.90052 15.8601 9.82441 16.4169 9.7483 16.9736C9.67133 17.5366 9.59435 18.0997 9.51738 18.6626C9.49643 18.8158 9.47553 18.9689 9.45458 19.122C9.44824 19.1686 9.4428 19.1926 9.42166 19.2336C9.26108 19.5464 9.10051 19.859 8.93993 20.1717C8.66569 20.7057 8.39145 21.2398 8.11721 21.7738C7.85184 22.2906 7.58648 22.8073 7.32116 23.3241C7.18726 23.5849 7.05331 23.8456 6.91941 24.1064C6.75802 24.4207 6.7523 24.7967 6.9122 25.1132C7.11334 25.5112 7.55021 25.7519 7.9939 25.7104C8.32378 25.6795 8.61869 25.4994 8.80527 25.2273C8.8581 25.1502 8.91087 25.0732 8.9637 24.9962C9.22257 24.6185 9.48145 24.2409 9.74033 23.8632C10.0918 23.3505 10.4432 22.8379 10.7946 22.3252C11.1045 21.8732 11.4143 21.4211 11.7242 20.9691C11.8583 20.7735 11.9924 20.5778 12.1265 20.3821C12.2467 20.2068 12.2846 20.0015 12.3325 19.7991C12.3814 19.5923 12.4303 19.3855 12.4792 19.1786C12.6155 18.602 12.7518 18.0254 12.8881 17.4488C12.9216 17.3069 12.9551 17.165 12.9887 17.0232C13.0185 16.897 13.0381 16.7634 13.0609 16.6342C13.0985 16.4202 13.1348 16.2059 13.1714 15.9917C13.1737 15.9784 13.1759 15.965 13.1782 15.9517C13.2048 15.9899 13.2127 16.0442 13.2211 16.0888C13.2364 16.1694 13.2453 16.2511 13.2526 16.3327C13.2714 16.5432 13.2776 16.7552 13.2749 16.9665C13.2737 17.0674 13.2702 17.1684 13.2625 17.269C13.2602 17.2989 13.2417 17.3476 13.261 17.3731C13.2959 17.4193 13.3308 17.4655 13.3657 17.5117C13.7065 17.9622 14.0472 18.4127 14.3878 18.8633C14.5093 19.0238 14.6307 19.1844 14.7522 19.345C14.7834 19.3863 14.7912 19.4203 14.8059 19.4709C14.9096 19.83 15.0133 20.1891 15.117 20.5483C15.2844 21.1276 15.4517 21.707 15.619 22.2864C15.7812 22.8479 15.9434 23.4094 16.1056 23.9709C16.1938 24.2765 16.2821 24.582 16.3703 24.8875C16.4493 25.1609 16.6142 25.3964 16.8586 25.5468C17.2391 25.7809 17.7385 25.7576 18.095 25.4882C18.4172 25.2447 18.5819 24.8343 18.5177 24.4358C18.5067 24.367 18.4956 24.2982 18.4845 24.2294C18.4178 23.8146 18.351 23.3999 18.2843 22.9851C18.1871 22.3813 18.09 21.7775 17.9928 21.1737C17.9001 20.5976 17.8073 20.0213 17.7146 19.4452C17.6612 19.1133 17.6078 18.7814 17.5544 18.4495C17.5513 18.4301 17.5481 18.4106 17.545 18.3912C17.5149 18.204 17.4266 18.048 17.3285 17.8899C17.2904 17.8286 17.2523 17.7672 17.2142 17.7058C16.9702 17.3129 16.7262 16.92 16.4821 16.5271C16.1538 15.9985 15.8255 15.4698 15.4972 14.9412C15.2584 14.5567 15.0196 14.1721 14.7808 13.7877C14.7555 13.7469 14.7301 13.7061 14.7048 13.6653C14.6992 13.6561 14.6935 13.6471 14.6878 13.638C14.6762 13.6191 14.6964 13.568 14.6998 13.5465C14.7546 13.2039 14.7697 12.8557 14.7771 12.5092C14.7875 12.0243 14.7813 11.5391 14.7776 11.0542C14.7742 10.6018 14.751 10.1508 14.7287 9.69904C14.765 9.73244 14.7852 9.78761 14.8039 9.8318C14.8378 9.91234 14.8656 9.99552 14.8916 10.0789C14.9575 10.2906 15.0111 10.5065 15.0544 10.7239C15.0644 10.7742 15.0738 10.8247 15.0823 10.8753C15.0864 10.8991 15.0901 10.9229 15.0937 10.9468C15.0954 10.9579 15.0947 10.997 15.1024 11.0043C15.1375 11.0369 15.1726 11.0696 15.2077 11.1023C15.2888 11.1779 15.3699 11.2534 15.4511 11.3291C15.6106 11.4778 15.7802 11.5964 15.9975 11.6437C16.0735 11.6602 16.1503 11.6656 16.2276 11.668C16.3785 11.6725 16.5294 11.6771 16.6803 11.6816C17.2575 11.699 17.8347 11.7164 18.4119 11.7338C18.9228 11.7491 19.4337 11.7646 19.9446 11.7799C20.0704 11.7837 20.1996 11.7944 20.3246 11.7764C20.7556 11.7142 21.1074 11.3667 21.1716 10.9356C21.2549 10.3769 20.8405 9.84716 20.278 9.79405Z" fill="#F6C2CE"/>
</g>
<defs>
<clipPath id="clip0_71_203">
<rect width="26" height="26" fill="white" transform="translate(-0.00012207)"/>
</clipPath>
</defs>
</svg>
