<svg width="26" height="26" viewBox="0 0 26 26" fill="none" xmlns="http://www.w3.org/2000/svg">
<g clip-path="url(#clip0_71_194)">
<path d="M25.0466 4.00705L23.0749 2.03538C22.7723 1.732 22.4125 1.49156 22.0165 1.32794C21.6205 1.16431 21.1959 1.08074 20.7674 1.08205H19.4457C18.9609 1.08158 18.4821 1.19042 18.0451 1.40048C17.6081 1.61055 17.2241 1.91643 16.9216 2.29538L0.238237 23.1604C0.111486 23.3195 0.0321898 23.5111 0.00945818 23.7133C-0.0132734 23.9154 0.0214817 24.1199 0.109731 24.3032C0.19798 24.4865 0.336142 24.6411 0.508347 24.7494C0.680551 24.8577 0.879812 24.9152 1.08324 24.9154C1.20073 24.9133 1.31737 24.895 1.4299 24.8612L14.4299 20.5279C14.588 20.4731 14.7322 20.3843 14.8524 20.2679L16.7916 18.3179C17.4118 18.8681 18.218 19.1619 19.0468 19.1398C19.8756 19.1176 20.6649 18.7812 21.2549 18.1987L25.0466 14.407C25.35 14.1044 25.5904 13.7447 25.754 13.3486C25.9176 12.9526 26.0012 12.5281 25.9999 12.0995V6.31454C26.0012 5.88603 25.9176 5.4615 25.754 5.06545C25.5904 4.6694 25.35 4.30968 25.0466 4.00705ZM19.4457 3.24871H20.7674C20.9107 3.24927 21.0525 3.27828 21.1846 3.33407C21.3166 3.38986 21.4363 3.47132 21.5366 3.57371L23.5082 5.54538C23.6106 5.64569 23.6921 5.76533 23.7479 5.89737C23.8037 6.0294 23.8327 6.17121 23.8332 6.31454V10.3834L17.9399 4.4901L18.6116 3.64987C18.7108 3.52383 18.8376 3.42215 18.9822 3.35262C19.1267 3.28309 19.2853 3.24755 19.4457 3.24871ZM19.7166 16.6604C19.6174 16.7607 19.4993 16.8404 19.3692 16.8948C19.239 16.9492 19.0993 16.9772 18.9582 16.9772C18.8172 16.9772 18.6775 16.9492 18.5473 16.8948C18.4171 16.8404 18.299 16.7607 18.1999 16.6604L17.5607 16.0212L12.6424 11.1137L16.5782 6.19224L23.3815 12.9956L19.7166 16.6604Z" fill="#F6C2CE"/>
</g>
<defs>
<clipPath id="clip0_71_194">
<rect width="26" height="26" fill="white" transform="translate(-0.00012207)"/>
</clipPath>
</defs>
</svg>
