<svg width="26" height="26" viewBox="0 0 26 26" fill="none" xmlns="http://www.w3.org/2000/svg">
<path d="M20.3125 4.875V10.6275C20.8507 10.5408 21.3993 10.5408 21.9375 10.6275V4.875C21.9375 4.3415 21.8324 3.81323 21.6283 3.32035C21.4241 2.82746 21.1249 2.37962 20.7476 2.00238C20.3704 1.62514 19.9225 1.3259 19.4297 1.12174C18.9368 0.91758 18.4085 0.8125 17.875 0.8125H16.25C15.1726 0.8125 14.1392 1.24051 13.3774 2.00238C12.6155 2.76425 12.1875 3.79756 12.1875 4.875V21.125C12.1875 21.7715 11.9307 22.3915 11.4736 22.8486C11.0165 23.3057 10.3965 23.5625 9.75 23.5625H8.125C7.47853 23.5625 6.85855 23.3057 6.40143 22.8486C5.94431 22.3915 5.6875 21.7715 5.6875 21.125V15.3725C5.1493 15.4592 4.6007 15.4592 4.0625 15.3725V21.125C4.0625 22.2024 4.49051 23.2358 5.25238 23.9976C6.01425 24.7595 7.04756 25.1875 8.125 25.1875H9.75C10.8274 25.1875 11.8608 24.7595 12.6226 23.9976C13.3845 23.2358 13.8125 22.2024 13.8125 21.125V4.875C13.8125 4.22853 14.0693 3.60855 14.5264 3.15143C14.9835 2.69431 15.6035 2.4375 16.25 2.4375H17.875C18.5215 2.4375 19.1415 2.69431 19.5986 3.15143C20.0557 3.60855 20.3125 4.22853 20.3125 4.875Z" fill="#F6C2CE"/>
<path d="M7.71875 1.625C7.71875 1.40951 7.63315 1.20285 7.48077 1.05048C7.3284 0.898102 7.12174 0.8125 6.90625 0.8125H2.84375C2.62826 0.8125 2.4216 0.898102 2.26923 1.05048C2.11685 1.20285 2.03125 1.40951 2.03125 1.625V4.0625H7.71875V1.625Z" fill="#F6C2CE"/>
<path d="M0.8125 5.6875H8.9375V8.9375H0.8125V5.6875Z" fill="#F6C2CE"/>
<path d="M8.85629 10.5625H0.893799C1.08028 11.4809 1.57852 12.3065 2.30409 12.8996C3.02966 13.4926 3.93795 13.8166 4.87505 13.8166C5.81215 13.8166 6.72043 13.4926 7.446 12.8996C8.17158 12.3065 8.66981 11.4809 8.85629 10.5625Z" fill="#F6C2CE"/>
<path d="M18.2812 24.375C18.2812 24.5905 18.3669 24.7972 18.5192 24.9495C18.6716 25.1019 18.8783 25.1875 19.0938 25.1875H23.1562C23.3717 25.1875 23.5784 25.1019 23.7308 24.9495C23.8831 24.7972 23.9688 24.5905 23.9688 24.375V21.9375H18.2812V24.375Z" fill="#F6C2CE"/>
<path d="M17.0625 17.0625H25.1875V20.3125H17.0625V17.0625Z" fill="#F6C2CE"/>
<path d="M17.1438 15.4377H25.1063C24.9198 14.5193 24.4216 13.6937 23.696 13.1006C22.9704 12.5076 22.0621 12.1836 21.125 12.1836C20.1879 12.1836 19.2797 12.5076 18.5541 13.1006C17.8285 13.6937 17.3303 14.5193 17.1438 15.4377Z" fill="#F6C2CE"/>
</svg>
