<svg width="26" height="26" viewBox="0 0 26 26" fill="none" xmlns="http://www.w3.org/2000/svg">
<path d="M21.9758 13.6805C20.5189 15.0232 18.5379 15.9086 16.4811 16.2229V22.093H20.8903C23.2469 22.093 25.175 20.165 25.175 17.8083C25.175 15.823 23.8182 14.152 21.9758 13.6805ZM12.9393 16.38C12.6108 16.38 12.2966 16.3086 12.0108 16.1658C11.5823 15.9516 11.2253 15.6088 11.0112 15.166C10.7986 14.6988 10.7062 14.0363 10.6683 13.5234C8.30751 13.589 6.4834 15.5161 6.4834 17.8083C6.4834 20.2101 8.45227 22.093 10.7681 22.093H15.0529V16.3658C14.9245 16.38 14.7958 16.38 14.6673 16.38H12.9393Z" fill="#F6C2CE"/>
<path d="M14.6099 4.31287C13.9959 4.78433 13.4246 5.34119 12.9247 5.96961C11.8678 7.26929 11.1537 8.78336 10.8251 10.3828C9.76819 8.96888 9.18262 7.25501 9.18262 5.44131V4.24146C9.18262 3.8414 9.49698 3.52734 9.89673 3.52734H11.0966C12.3249 3.52734 13.5246 3.79871 14.6099 4.31287Z" fill="#F6C2CE"/>
<path d="M22.9367 3.52734H21.0229C18.295 3.52734 15.7526 4.74133 14.0387 6.85525C12.3464 8.96798 11.7459 11.57 12.1821 13.9964C12.451 13.7275 16.8707 9.30793 16.724 9.45462C16.9809 9.16897 17.4666 9.16883 17.7237 9.45462C18.0094 9.7114 18.0095 10.1971 17.7237 10.4542C17.579 10.5988 13.0455 15.1325 13.2248 14.9533C16.3293 14.9533 19.2107 14.7243 21.6085 11.8683C22.9369 10.2544 23.651 8.26904 23.651 6.15542V4.24146C23.6509 3.8414 23.3368 3.52734 22.9367 3.52734Z" fill="#F6C2CE"/>
<path d="M6.94046 13.5664C5.78345 14.609 5.0552 16.1228 5.0552 17.8082C5.0552 19.2936 5.62649 20.7077 6.64068 21.7501C6.1408 21.9501 5.61221 22.0502 5.08377 22.0502C3.98389 22.0502 2.88148 21.636 2.05296 20.8075C0.382087 19.1365 0.382087 16.4084 2.05296 14.7374L5.09805 11.6953L6.94046 13.5664Z" fill="#F6C2CE"/>
<path d="M10.4396 12.1096C9.61108 12.1526 8.82556 12.3811 8.14016 12.7382L6.09766 10.6957L8.25427 8.53906C8.71145 9.86746 9.43984 11.0957 10.4396 12.1096Z" fill="#F6C2CE"/>
</svg>
