<svg width="26" height="26" viewBox="0 0 26 26" fill="none" xmlns="http://www.w3.org/2000/svg">
<path d="M20.3645 4.77289L20.7783 4.05549C21.0176 3.63784 21.0825 3.14272 20.959 2.67751C20.8349 2.21209 20.53 1.81531 20.1121 1.57582L19.4414 1.1885C18.5723 0.68736 17.4616 0.985593 16.9607 1.85468L16.5469 2.57165L18.4559 3.67334L20.3645 4.77289Z" fill="#F6C2CE"/>
<path d="M18.6119 13.9379L9.49344 8.68164L8.38873 10.8687C6.89821 13.8228 5.74079 16.9336 4.93776 20.1436L4.68213 21.1678L10.2141 24.3582L10.9728 23.6206C13.3492 21.3184 15.462 18.7591 17.2722 15.9898L18.6119 13.9379ZM7.12651 18.8665L6.26775 18.6701C6.38266 18.1663 6.51004 17.6596 6.64667 17.1643L7.4964 17.399C7.3645 17.8812 7.24077 18.3766 7.12651 18.8665ZM9.38951 12.6239C8.77497 13.9072 8.24177 15.2279 7.79291 16.5781L6.95567 16.2999C7.41679 14.9159 7.96376 13.5618 8.59358 12.2458L9.41511 10.5324L10.2082 10.9132L9.38951 12.6239Z" fill="#F6C2CE"/>
<path d="M20.3364 11.8801L10.411 6.15625L9.53052 7.68313L19.5706 13.4728L20.4511 11.9457L20.3372 11.8805L20.3364 11.8801Z" fill="#F6C2CE"/>
<path d="M20.9057 6.90061L20.2047 5.70058L15.8261 3.17378L14.4365 3.16797H14.4251C13.323 3.16904 12.3045 3.75669 11.752 4.71034L11.2334 5.61063L20.3949 10.8945L20.9137 9.99503C21.4641 9.036 21.4609 7.85641 20.9057 6.90061Z" fill="#F6C2CE"/>
<path d="M8.29492 3.96633H9.17628C9.17628 2.99288 9.96532 2.20362 10.939 2.20362V1.32227C9.47924 1.32377 8.29621 2.50659 8.29492 3.96633Z" fill="#F6C2CE"/>
<path d="M9.17629 0.881356V0C7.71655 0.00150623 6.53352 1.18432 6.53223 2.64407H7.41358C7.41358 1.67062 8.20263 0.881356 9.17629 0.881356Z" fill="#F6C2CE"/>
<path d="M17.1084 22.0352H16.2271C16.2271 23.0086 15.4378 23.7979 14.4644 23.7979V24.6792C15.9239 24.6775 17.1067 23.4947 17.1084 22.0352Z" fill="#F6C2CE"/>
<path d="M16.2271 25.1182V25.9995C17.6866 25.9978 18.8694 24.815 18.8711 23.3555H17.9898C17.9898 24.3289 17.2005 25.1182 16.2271 25.1182Z" fill="#F6C2CE"/>
</svg>
