<svg width="122" height="209" viewBox="0 0 122 209" fill="none" xmlns="http://www.w3.org/2000/svg">
<path fill-rule="evenodd" clip-rule="evenodd" d="M81.6997 8.82402C85.3901 10.844 88.3317 13.8473 90.8455 17.2228C93.2255 20.7311 95.0172 24.5318 96.1939 28.6781C97.1566 32.8243 97.5042 37.13 96.9426 41.4889C96.7287 42.5254 96.4613 43.5088 96.2206 44.5719L95.873 46.0072L95.6858 47.3361V47.3095L96.3811 45.8743L96.8892 44.4656C97.1299 43.3759 97.5042 42.3659 97.7449 41.3028C98.5739 36.8908 98.5739 32.4256 97.9589 28.0402C96.9694 23.6548 95.4184 19.5085 93.0918 15.6812C90.578 11.9071 87.5295 8.45193 83.6786 5.95356C82.7694 5.34225 81.7799 4.78411 80.7102 4.25254L78.972 3.24256C78.6244 3.00336 78.0628 2.89704 77.5547 2.60468L74.3991 1.40865L71.0296 0.611303L69.3983 0.318941L67.6868 0.186049C66.5369 0.0265784 65.4673 0 64.3173 0C63.114 0.0265784 61.9641 0.239205 60.8141 0.212627C59.477 0.292362 58.2469 0.478411 56.9633 0.691038L53.4333 1.54155C52.2834 1.94022 51.1335 2.36548 50.0104 2.76415L48.4058 3.48177L46.935 4.35885C45.8653 4.94358 44.8491 5.58146 43.7795 6.16618C39.9286 8.8506 36.7463 12.3855 34.2058 16.266C31.7188 20.3325 30.0875 24.8242 29.1248 29.4223C28.376 34.1266 28.4295 38.9639 29.4992 43.6683C29.7131 44.8112 30.1143 45.9274 30.5154 47.0172C30.9165 48.1069 31.1305 49.3295 31.7188 50.3926L33.2431 53.5023L32.9222 54.1402C31.1572 57.5688 29.9538 61.2366 29.1516 64.9576C28.4028 69.6619 28.4563 74.4992 29.526 79.2036C29.7399 80.3465 30.141 81.4627 30.5421 82.5525C30.9433 83.6422 31.1572 84.8648 31.7455 85.9545L33.4035 89.3565L35.3022 92.5193L36.3452 93.928L37.4683 95.2835L39.4205 98.0211L43.512 103.151C54.7972 117.822 66.7509 131.935 78.4372 146.261L85.9784 155.218L88.5456 158.62L89.8293 161.118C90.4711 162.022 90.5513 162.819 91.0059 163.803C91.4071 164.706 91.8082 165.716 91.9686 166.646C92.8779 170.447 93.1186 174.328 92.7442 178.314C92.1024 182.195 90.8455 186.102 88.8398 189.504C86.8341 192.906 84.3204 195.962 81.1916 198.541C80.3626 199.152 79.5603 199.737 78.7313 200.242L77.5279 201.119L76.0036 201.863C75.0409 202.288 74.2119 202.846 73.1957 203.032L70.4948 203.723C69.3983 204.122 68.5693 204.069 67.4729 204.281C66.3765 204.467 65.4138 204.627 64.2906 204.6C62.2582 204.521 60.2526 204.68 58.1934 204.388L55.0646 203.883L52.0962 202.926C51.0533 202.634 50.0638 202.129 49.1279 201.65C48.1117 201.145 47.2559 200.879 46.3734 200.135C42.683 198.115 39.7414 195.112 37.2009 191.736C34.8209 188.228 33.0291 184.427 31.8525 180.281C30.8898 176.135 30.5421 171.829 31.1037 167.497C31.3177 166.487 31.6118 165.477 31.8258 164.414L32.1734 162.979L32.3606 161.65L31.692 163.085L31.1839 164.494C30.9433 165.583 30.5689 166.62 30.3282 167.656C29.4992 172.068 29.4992 176.534 30.1143 180.919C31.1037 185.304 32.6548 189.451 34.9813 193.278C37.4951 197.052 40.5169 200.507 44.4213 203.006C45.3037 203.617 46.3199 204.175 47.3629 204.68L49.1011 205.69C49.4488 205.929 50.0104 206.036 50.5185 206.328L53.674 207.524L57.0435 208.321L58.6748 208.614L60.413 208.747C61.5629 208.906 62.6326 208.933 63.7825 208.933C64.9859 208.906 66.1358 208.693 67.2857 208.72C68.6228 208.64 69.853 208.454 71.1366 208.215L74.6665 207.391C75.8164 206.992 76.9663 206.567 78.0895 206.168L79.7475 205.477L81.2183 204.6C82.288 204.016 83.3309 203.378 84.3739 202.793C88.2515 200.135 91.4071 196.574 93.9476 192.693C96.4346 188.627 98.0391 184.135 99.0285 179.537C99.7773 174.833 99.7238 169.995 98.6809 165.291C98.4669 164.148 98.0658 163.032 97.6647 161.942C97.2903 160.852 97.0496 159.63 96.4613 158.567L94.9637 155.457L95.6323 154.101L95.6858 153.995L95.8462 153.65L96.1939 152.905L96.5148 152.161V152.135L96.6485 151.816L97.0229 150.885L97.1031 150.646L97.2635 150.248L97.2903 150.141L97.4775 149.61L97.6647 149.052L97.9589 148.121L98.36 146.739L98.6274 145.729V145.703L98.7076 145.437L99.0553 143.949C99.8041 139.244 99.7506 134.407 98.7076 129.702C98.4937 128.56 98.0926 127.443 97.6914 126.354C97.3171 125.264 97.0764 124.041 96.4881 122.978L94.83 119.576L92.8511 116.334L91.8082 114.951L90.685 113.596L88.7596 110.858L84.668 105.729C73.3829 91.0575 61.4292 76.9444 49.7429 62.6187L42.2017 53.6883L39.6344 50.2863L38.3508 47.7879C37.709 46.8843 37.6288 46.0869 37.1742 45.1035C36.773 44.1999 36.3719 43.2164 36.1847 42.2862C35.2755 38.4855 35.0348 34.6051 35.4092 30.6183C36.051 26.7379 37.3079 22.8308 39.3135 19.4288C41.3192 16.0268 43.8329 12.9703 46.9618 10.3921C47.7908 9.78084 48.593 9.19612 49.422 8.69113L50.6254 7.78747L52.1497 7.04327C53.1124 6.61802 53.9414 6.05987 54.9576 5.87382L57.6586 5.18278C58.755 4.78411 59.584 4.83727 60.6804 4.62464C61.7769 4.43859 62.7396 4.27912 63.8627 4.3057C65.8951 4.38543 67.9008 4.22596 69.9599 4.51832L73.0085 5.07647L75.9769 6.03329C77.0198 6.32565 77.9825 6.83064 78.9452 7.30905C79.9614 7.81404 80.8172 8.07983 81.6997 8.82402ZM89.8293 125.53C90.4711 126.433 90.5513 127.257 91.0059 128.214C91.4071 129.118 91.8082 130.128 91.9954 131.058C92.9046 134.859 93.1453 138.739 92.7976 142.646V142.726L92.7442 143.045V143.071L92.7174 143.178L92.6639 143.47L92.5035 144.267L92.45 144.48L92.3965 144.719V144.746L92.3163 145.091L92.2093 145.543V145.596L92.1291 145.889L91.9419 146.58L91.9151 146.633L91.0327 149.769L88.6794 146.447L84.5878 141.344C73.3027 126.673 61.349 112.559 49.6627 98.2337L42.1215 89.3034L39.5542 85.9013L38.2706 83.403C37.6288 82.4993 37.5486 81.6754 37.0939 80.7186C36.6928 79.8149 36.2917 78.8049 36.1045 77.8747C35.1953 74.074 34.9546 70.1935 35.329 66.2067C35.5429 64.8247 35.8638 63.4692 36.2382 62.1403L37.0672 59.2432L39.3938 62.5124L43.4853 67.642C54.7704 82.3132 66.7241 96.4264 78.4104 110.752L85.9517 119.682L88.5189 123.084L89.8293 125.53Z" fill="white"/>
<path fill-rule="evenodd" clip-rule="evenodd" d="M64.0501 158.698C62.0979 158.698 60.5201 160.266 60.5201 162.206C60.5201 164.146 62.0979 165.714 64.0501 165.714C66.0023 165.714 67.58 164.146 67.58 162.206C67.58 160.266 66.0023 158.698 64.0501 158.698ZM64.0501 48.0254C62.0979 48.0254 60.5201 49.5935 60.5201 51.5337C60.5201 53.474 62.0979 55.0421 64.0501 55.0421C66.0023 55.0421 67.58 53.474 67.58 51.5337C67.58 49.5935 66.0023 48.0254 64.0501 48.0254Z" fill="white"/>
<path fill-rule="evenodd" clip-rule="evenodd" d="M37.9767 151.757C36.292 150.774 34.1259 151.359 33.1364 153.033C32.147 154.708 32.7353 156.861 34.42 157.844C36.1048 158.827 38.2709 158.243 39.2603 156.568C40.2498 154.894 39.6882 152.741 37.9767 151.757ZM93.6536 55.9159C91.9689 54.959 89.8028 55.5172 88.8133 57.1916C87.8239 58.8661 88.4122 61.0189 90.097 62.0023C91.7817 62.9591 93.9478 62.401 94.9373 60.7265C95.9267 59.0255 95.3384 56.8727 93.6536 55.9159Z" fill="white"/>
<path fill-rule="evenodd" clip-rule="evenodd" d="M18.9095 132.78C17.9201 131.105 15.7807 130.521 14.0692 131.504C12.3845 132.461 11.7961 134.614 12.7856 136.315C13.7751 137.989 15.9412 138.574 17.6259 137.591C19.2839 136.634 19.8722 134.481 18.9095 132.78ZM115.341 77.4437C114.352 75.7692 112.212 75.1845 110.501 76.1679C108.816 77.1513 108.228 79.2776 109.217 80.9786C110.207 82.653 112.346 83.2378 114.058 82.2809C115.742 81.2975 116.304 79.1447 115.341 77.4437Z" fill="white"/>
<path fill-rule="evenodd" clip-rule="evenodd" d="M7.27372 106.775C7.27372 105.088 5.64815 103.725 3.63686 103.725C1.62557 103.725 0 105.088 0 106.775C0 108.461 1.62557 109.825 3.63686 109.825C5.64815 109.825 7.27372 108.461 7.27372 106.775ZM122 106.775C122 105.088 120.374 103.725 118.363 103.725C116.352 103.725 114.726 105.088 114.726 106.775C114.726 108.461 116.352 109.825 118.363 109.825C120.374 109.825 122 108.461 122 106.775Z" fill="white"/>
<path fill-rule="evenodd" clip-rule="evenodd" d="M18.9095 80.9805C19.899 79.306 19.3107 77.1532 17.6259 76.1698C15.9412 75.2129 13.7751 75.7711 12.7856 77.4455C11.7961 79.12 12.3845 81.2728 14.0692 82.2562C15.754 83.2396 17.9201 82.6549 18.9095 80.9805ZM115.341 136.317C116.331 134.642 115.742 132.489 114.058 131.506C112.373 130.523 110.207 131.107 109.217 132.782C108.228 134.456 108.816 136.609 110.501 137.592C112.186 138.576 114.352 137.991 115.341 136.317Z" fill="white"/>
</svg>
