<svg width="95" height="51" viewBox="0 0 95 51" fill="none" xmlns="http://www.w3.org/2000/svg">
<path d="M6.28657 46.827C6.08929 46.3782 5.80434 46.0166 5.40978 45.729C5.03276 45.4414 4.42778 45.0536 3.58168 44.5744C2.68736 44.0472 2.08676 43.6114 1.76673 43.2367C1.43355 42.862 1.29765 42.4394 1.34587 41.9732C1.38971 41.568 1.57383 41.2237 1.90701 40.9231C2.22266 40.6225 2.69174 40.5005 3.31426 40.5789C3.96308 40.6399 4.50669 40.9231 4.94509 41.4372C5.0503 41.5592 5.15551 41.6943 5.24758 41.8294L5.58076 41.5592C5.21689 41.08 4.85302 40.7314 4.476 40.5527C4.09898 40.3741 3.70443 40.2521 3.26604 40.2085C2.48131 40.1345 1.79742 40.3 1.24066 40.7357C0.666359 41.1715 0.350715 41.7553 0.271804 42.4917C0.210429 42.9709 0.284956 43.4372 0.469082 43.8903C0.666359 44.3391 0.951315 44.7181 1.34587 45.0319C1.75358 45.3456 2.34102 45.7246 3.13013 46.1734C4.02007 46.6701 4.62506 47.1058 4.94509 47.4806C5.26073 47.8727 5.38348 48.3215 5.3221 48.8313C5.27826 49.341 5.01961 49.7942 4.58122 50.1515C4.12967 50.5262 3.53784 50.6917 2.81449 50.5872C1.72727 50.4085 1.10475 49.9554 0.28934 48.8008L0 49.1145C0.587448 50.0774 1.90263 50.8704 2.90217 50.9793C3.90171 51.0839 4.71712 50.8878 5.36594 50.4085C6.01477 49.9118 6.39179 49.2365 6.48385 48.352C6.54522 47.7899 6.48385 47.2932 6.28657 46.827ZM10.7757 50.6133V40.1562H9.20628V42.8751V48.1951V50.975H16.7773V50.6133H10.7757ZM20.4511 50.6002V48.1951V47.4457V47.0405V46.8008V45.4806H21.5997H23.5944V45.1059H21.5558H20.4511V43.167V42.8533V40.5266H21.9022H25.2427V40.165H18.8948V42.8315V46.7965V47.4413V48.1908V50.9706H25.212V50.5959H21.8715L20.4511 50.6002ZM29.1138 50.6002V48.1951V47.4457V47.0405V46.8008V45.4806H30.2623H32.257V45.1059H30.2185H29.1138V43.167V42.8533V40.5266H30.5648H33.9054V40.165H27.5575V42.8315V46.7965V47.4413V48.1908V50.9706H33.8747V50.5959H30.5341L29.1138 50.6002ZM44.0761 50.975H46.2374L39.8719 44.5439L41.6562 42.9361L41.8973 42.6659C42.156 42.4263 42.3664 42.2172 42.5637 42.0342L44.5715 40.1562H44.0411L41.231 42.679C41.2178 42.679 41.2617 42.6921 41.2441 42.7095L37.9649 45.6854V42.8751V40.1562H36.3911V42.8751V48.1951V50.975H37.9649V48.1951V46.2126L38.7058 45.5373L44.0761 50.975ZM58.7404 46.827C58.5431 46.3782 58.2582 46.0166 57.8636 45.729C57.4866 45.4414 56.8816 45.0536 56.0355 44.5744C55.1456 44.0472 54.5406 43.6114 54.2206 43.2367C53.8874 42.862 53.7515 42.4394 53.7953 41.9732C53.8392 41.568 54.0233 41.2237 54.3565 40.9231C54.6721 40.6225 55.1412 40.5005 55.7637 40.5789C56.4126 40.6399 56.9562 40.9231 57.3946 41.4372C57.4998 41.5592 57.605 41.6943 57.697 41.8294L58.0302 41.5592C57.6664 41.08 57.3025 40.7314 56.9255 40.5527C56.5485 40.3741 56.1539 40.2521 55.7155 40.2085C54.9308 40.1345 54.2513 40.3 53.6901 40.7357C53.1158 41.1715 52.8002 41.7553 52.7213 42.4917C52.6599 42.9709 52.7344 43.4372 52.9186 43.8903C53.1158 44.3391 53.4008 44.7181 53.7953 45.0319C54.203 45.3456 54.7949 45.7246 55.5796 46.1734C56.4695 46.6701 57.0745 47.1058 57.3946 47.4806C57.7146 47.8727 57.833 48.3215 57.7716 48.8313C57.7277 49.341 57.4691 49.7942 57.0307 50.1515C56.5791 50.5262 55.9873 50.6917 55.264 50.5872C54.1767 50.4085 53.5542 49.9554 52.7388 48.8008L52.4495 49.1145C53.0369 50.0774 54.3521 50.8704 55.3516 50.9793C56.3512 51.0839 57.1666 50.8878 57.8154 50.4085C58.4642 49.9118 58.8413 49.2365 58.9333 48.352C58.9947 47.7899 58.9333 47.2932 58.7404 46.827ZM63.5452 45.5504C63.5452 43.899 63.8784 42.6529 64.5448 41.8076C65.2243 40.9667 65.8468 40.544 67.1006 40.544C68.3851 40.544 69.1874 40.9667 69.8669 41.8381C70.5464 42.6964 70.6998 43.9426 70.6998 45.5634C70.6998 47.2322 70.5332 48.4783 69.8537 49.3193C69.1742 50.1602 68.4158 50.5828 67.2234 50.5828C65.8775 50.5828 65.2287 50.1602 64.5491 49.3193C63.8784 48.4827 63.5452 47.2366 63.5452 45.5504ZM61.761 45.4937C61.761 47.1451 62.3046 48.4827 63.3655 49.4761C64.4396 50.4826 65.4522 50.9793 67.1138 50.9793C68.8366 50.9793 69.8493 50.4826 70.9102 49.4761C71.9536 48.4827 72.4797 47.1756 72.4797 45.5547C72.4797 43.8859 71.9361 42.5657 70.8313 41.6028C69.7441 40.6399 68.7314 40.1606 67.0962 40.1606C65.461 40.1606 64.479 40.6399 63.3918 41.6159C62.3046 42.5919 61.761 43.8859 61.761 45.4937ZM83.7859 40.1606V42.5657V46.1996C83.7859 47.0274 83.6938 47.6418 83.6368 48.0165C83.5755 48.4086 83.3782 48.7833 83.1239 49.158C82.8652 49.5197 82.4444 49.8203 81.9139 50.06C81.3703 50.317 80.7653 50.4347 80.1165 50.4347C79.2836 50.4347 78.6041 50.256 78.1087 49.877C77.6089 49.5153 77.3678 49.097 77.245 48.6003C77.1398 48.1036 77.153 47.2801 77.153 46.1211V42.7574V40.1562H75.6098V42.7574V46.0776L75.5353 47.1756C75.4739 48.0339 75.6405 48.7223 75.9299 49.2321C76.2017 49.7419 76.6707 50.1645 77.3196 50.4957C77.9859 50.8094 78.7838 50.975 79.7527 50.975C80.5549 50.975 81.2651 50.853 81.8833 50.6002C82.5014 50.3432 82.988 49.999 83.3212 49.5807C83.6675 49.158 83.9262 48.7223 84.0007 48.2866C84.0752 47.8378 84.1673 47.1581 84.1673 46.2562V42.6964V40.1562L83.7859 40.1606ZM88.9984 50.6133V40.1562H87.4246V42.8751V48.1951V50.975H95V50.6133H88.9984Z" fill="white"/>
<path fill-rule="evenodd" clip-rule="evenodd" d="M50.3934 1.44265C50.9984 1.7738 51.4806 2.26615 51.8927 2.8195C52.2829 3.39464 52.5766 4.01771 52.7695 4.69742C52.9273 5.37713 52.9843 6.08298 52.8922 6.79755C52.8572 6.96747 52.8133 7.12869 52.7739 7.30297L52.7169 7.53826L52.6862 7.75611V7.75175L52.8002 7.51647L52.8835 7.28554C52.9229 7.1069 52.9843 6.94133 53.0237 6.76705C53.1596 6.04377 53.1597 5.31177 53.0588 4.59285C52.8966 3.87392 52.6423 3.19421 52.2609 2.56679C51.8489 1.94808 51.3491 1.38166 50.7178 0.972087C50.5687 0.871873 50.4065 0.780374 50.2312 0.693232L49.9462 0.527661C49.8892 0.488447 49.7972 0.471019 49.7139 0.423091L49.1966 0.227021L48.6442 0.0963073L48.3768 0.0483791L48.0962 0.0265935C47.9077 0.000450863 47.7323 -0.00390625 47.5438 -0.00390625C47.3465 0.000450862 47.158 0.0353078 46.9695 0.0309506C46.7503 0.044022 46.5487 0.0745218 46.3382 0.109379L45.7596 0.248806C45.571 0.314163 45.3825 0.383877 45.1984 0.449233L44.9354 0.566875L44.6943 0.71066C44.5189 0.806517 44.3523 0.911087 44.177 1.00694C43.5457 1.44701 43.024 2.02651 42.6075 2.66265C42.1998 3.32928 41.9324 4.06564 41.7746 4.81942C41.6518 5.59063 41.6606 6.38362 41.8359 7.15483C41.871 7.34219 41.9368 7.52518 42.0025 7.70383C42.0683 7.88247 42.1033 8.08289 42.1998 8.25718L42.4497 8.76696L42.3971 8.87153C42.1077 9.4336 41.9105 10.0349 41.7789 10.6449C41.6562 11.4161 41.665 12.2091 41.8403 12.9803C41.8754 13.1676 41.9411 13.3506 42.0069 13.5293C42.0727 13.7079 42.1077 13.9084 42.2042 14.087L42.476 14.6447L42.7872 15.1632L42.9582 15.3941L43.1423 15.6163L43.4624 16.0651L44.1331 16.906C45.9831 19.3112 47.9428 21.6248 49.8585 23.9733L51.0948 25.4416L51.5157 25.9993L51.7261 26.4089C51.8313 26.557 51.8445 26.6878 51.919 26.849C51.9848 26.9971 52.0505 27.1627 52.0768 27.3152C52.2259 27.9383 52.2653 28.5744 52.204 29.228C52.0987 29.8641 51.8927 30.5046 51.5639 31.0623C51.2351 31.62 50.823 32.1211 50.3101 32.5437C50.1742 32.6439 50.0427 32.7398 49.9068 32.8226L49.7095 32.9664L49.4596 33.0884C49.3018 33.1581 49.1659 33.2496 48.9993 33.2801L48.5565 33.3934C48.3768 33.4587 48.2409 33.45 48.0611 33.4849C47.8814 33.5154 47.7236 33.5415 47.5394 33.5371C47.2063 33.5241 46.8775 33.5502 46.5399 33.5023L46.027 33.4195L45.5404 33.2626C45.3694 33.2147 45.2072 33.1319 45.0537 33.0535C44.8871 32.9707 44.7469 32.9271 44.6022 32.8051C43.9972 32.474 43.515 31.9817 43.0985 31.4283C42.7083 30.8532 42.4146 30.2301 42.2217 29.5504C42.0639 28.8707 42.0069 28.1648 42.099 27.4546C42.134 27.289 42.1823 27.1235 42.2173 26.9492L42.2743 26.7139L42.305 26.496L42.1954 26.7313L42.1121 26.9623C42.0727 27.1409 42.0113 27.3108 41.9718 27.4808C41.8359 28.204 41.8359 28.936 41.9368 29.655C42.099 30.3739 42.3532 31.0536 42.7346 31.681C43.1467 32.2997 43.6421 32.8661 44.2822 33.2757C44.4268 33.3759 44.5934 33.4674 44.7644 33.5502L45.0494 33.7158C45.1063 33.755 45.1984 33.7724 45.2817 33.8204L45.799 34.0164L46.3514 34.1471L46.6188 34.1951L46.9038 34.2169C47.0923 34.243 47.2676 34.2474 47.4561 34.2474C47.6534 34.243 47.8419 34.2081 48.0304 34.2125C48.2496 34.1994 48.4513 34.1689 48.6617 34.1297L49.2404 33.9946C49.4289 33.9293 49.6174 33.8596 49.8015 33.7942L50.0734 33.6809L50.3145 33.5371C50.4898 33.4413 50.6608 33.3367 50.8318 33.2409C51.4674 32.8051 51.9848 32.2213 52.4012 31.5852C52.8089 30.9185 53.072 30.1822 53.2342 29.4284C53.3569 28.6572 53.3482 27.8642 53.1772 27.093C53.1421 26.9056 53.0764 26.7226 53.0106 26.544C52.9492 26.3653 52.9098 26.1649 52.8133 25.9906L52.5678 25.4808L52.6774 25.2586L52.6862 25.2412L52.7125 25.1846L52.7695 25.0626L52.8221 24.9406V24.9362L52.844 24.8839L52.9054 24.7314L52.9185 24.6922L52.9448 24.6268L52.9492 24.6094L52.9799 24.5223L53.0106 24.4308L53.0588 24.2783L53.1246 24.0517L53.1684 23.8861V23.8818L53.1816 23.8382L53.2386 23.5942C53.3613 22.823 53.3525 22.03 53.1816 21.2588C53.1465 21.0714 53.0807 20.8884 53.015 20.7098C52.9536 20.5312 52.9142 20.3307 52.8177 20.1565L52.5459 19.5987L52.2215 19.0672L52.0505 18.8406L51.8664 18.6184L51.5507 18.1696L50.88 17.3287C49.03 14.9236 47.0704 12.6099 45.1546 10.2615L43.9183 8.79746L43.4974 8.23975L43.287 7.83018C43.1818 7.68204 43.1686 7.55133 43.0941 7.39011C43.0284 7.24197 42.9626 7.08076 42.9319 6.92826C42.7829 6.30519 42.7434 5.66905 42.8048 5.01549C42.91 4.37935 43.116 3.73885 43.4448 3.18114C43.7736 2.62343 44.1857 2.12236 44.6986 1.69972C44.8345 1.59951 44.9661 1.50365 45.102 1.42087L45.2992 1.27273L45.5491 1.15073C45.7069 1.08101 45.8429 0.989515 46.0094 0.959016L46.4522 0.845731C46.632 0.780374 46.7679 0.789088 46.9476 0.754231C47.1273 0.723731 47.2852 0.697589 47.4693 0.701946C47.8025 0.715017 48.1313 0.688875 48.4688 0.736803L48.9686 0.828302L49.4552 0.985158C49.6262 1.03309 49.784 1.11587 49.9418 1.1943C50.1084 1.27708 50.2487 1.32066 50.3934 1.44265ZM51.7261 20.5747C51.8313 20.7229 51.8445 20.8579 51.919 21.0148C51.9848 21.1629 52.0505 21.3285 52.0812 21.481C52.2303 22.1041 52.2697 22.7402 52.2127 23.3807V23.3938L52.204 23.4461V23.4504L52.1996 23.4679L52.1908 23.5158L52.1645 23.6465L52.1557 23.6814L52.147 23.7206V23.7249L52.1338 23.7816L52.1163 23.8556V23.8644L52.1031 23.9123L52.0724 24.0256L52.068 24.0343L51.9234 24.5484L51.5376 24.0038L50.8668 23.1672C49.0168 20.7621 47.0572 18.4485 45.1414 16.1L43.9051 14.636L43.4843 14.0783L43.2739 13.6687C43.1686 13.5206 43.1555 13.3855 43.081 13.2286C43.0152 13.0805 42.9494 12.9149 42.9188 12.7624C42.7697 12.1394 42.7302 11.5032 42.7916 10.8497C42.8267 10.6231 42.8793 10.4009 42.9407 10.183L43.0766 9.7081L43.458 10.244L44.1287 11.0849C45.9788 13.4901 47.9384 15.8037 49.8542 18.1522L51.0904 19.6162L51.5113 20.1739L51.7261 20.5747Z" fill="white"/>
<path fill-rule="evenodd" clip-rule="evenodd" d="M47.5001 26.0122C47.18 26.0122 46.9214 26.2692 46.9214 26.5873C46.9214 26.9054 47.18 27.1624 47.5001 27.1624C47.8201 27.1624 48.0787 26.9054 48.0787 26.5873C48.0787 26.2692 47.8201 26.0122 47.5001 26.0122ZM47.5001 7.86914C47.18 7.86914 46.9214 8.12621 46.9214 8.44428C46.9214 8.76235 47.18 9.01942 47.5001 9.01942C47.8201 9.01942 48.0787 8.76235 48.0787 8.44428C48.0787 8.12621 47.8201 7.86914 47.5001 7.86914Z" fill="white"/>
<path fill-rule="evenodd" clip-rule="evenodd" d="M43.2257 24.8742C42.9495 24.713 42.5944 24.8088 42.4322 25.0833C42.27 25.3578 42.3664 25.7107 42.6426 25.872C42.9188 26.0332 43.2739 25.9373 43.4361 25.6628C43.5983 25.3883 43.5063 25.0354 43.2257 24.8742ZM52.353 9.16244C52.0769 9.00558 51.7218 9.09708 51.5596 9.37158C51.3973 9.64608 51.4938 9.999 51.77 10.1602C52.0462 10.3171 52.4013 10.2256 52.5635 9.95107C52.7257 9.67222 52.6292 9.31929 52.353 9.16244Z" fill="white"/>
<path fill-rule="evenodd" clip-rule="evenodd" d="M40.0999 21.7634C39.9377 21.4889 39.587 21.393 39.3064 21.5542C39.0302 21.7111 38.9338 22.064 39.096 22.3429C39.2582 22.6174 39.6133 22.7132 39.8895 22.552C40.1613 22.3952 40.2578 22.0422 40.0999 21.7634ZM55.9084 12.6919C55.7462 12.4174 55.3955 12.3215 55.1149 12.4827C54.8387 12.6439 54.7423 12.9925 54.9045 13.2714C55.0667 13.5459 55.4174 13.6417 55.698 13.4849C55.9742 13.3237 56.0662 12.9707 55.9084 12.6919Z" fill="white"/>
<path fill-rule="evenodd" clip-rule="evenodd" d="M38.1924 17.5C38.1924 17.2235 37.9259 17 37.5962 17C37.2665 17 37 17.2235 37 17.5C37 17.7765 37.2665 18 37.5962 18C37.9259 18 38.1924 17.7765 38.1924 17.5ZM57 17.5C57 17.2235 56.7335 17 56.4038 17C56.0741 17 55.8076 17.2235 55.8076 17.5C55.8076 17.7765 56.0741 18 56.4038 18C56.7335 18 57 17.7765 57 17.5Z" fill="white"/>
<path fill-rule="evenodd" clip-rule="evenodd" d="M40.0999 13.2714C40.2621 12.9969 40.1657 12.644 39.8895 12.4827C39.6133 12.3259 39.2582 12.4174 39.096 12.6919C38.9338 12.9664 39.0302 13.3193 39.3064 13.4805C39.5826 13.6417 39.9377 13.5459 40.0999 13.2714ZM55.9084 22.3429C56.0706 22.0684 55.9742 21.7155 55.698 21.5543C55.4218 21.393 55.0667 21.4889 54.9045 21.7634C54.7423 22.0379 54.8387 22.3908 55.1149 22.552C55.3911 22.7132 55.7462 22.6174 55.9084 22.3429Z" fill="white"/>
</svg>
